<svg width="40" height="40" viewBox="0 0 40 40" fill="none" xmlns="http://www.w3.org/2000/svg">
<path d="M21.5 17.5C20.5 17.25 19.5 16.75 18.75 16C18 15.75 17.75 15 17.75 14.5C17.75 14 18 13.25 18.5 13C19.25 12.5 20 12 20.75 12.25C22.25 12.25 23.5 13 24.25 14L26.5 11C25.75 10.25 25 9.75 24.25 9.25C23.5 8.75 22.5 8.5 21.5 8.5V5H18.5V8.5C17.25 8.75 16 9.5 15 10.5C14 11.75 13.25 13.25 13.5 14.75C13.5 16.25 14 17.75 15 18.75C16.25 20 18 20.75 19.5 21.5C20.25 21.75 21.25 22.25 22 22.75C22.5 23.25 22.75 24 22.75 24.75C22.75 25.5 22.5 26.25 22 27C21.25 27.75 20.25 28 19.5 28C18.5 28 17.25 27.75 16.5 27C15.75 26.5 15 25.75 14.5 25L12 27.75C12.75 28.75 13.5 29.5 14.5 30.25C15.75 31 17.25 31.75 18.75 31.75V35H21.5V31.25C23 31 24.25 30.25 25.25 29.25C26.5 28 27.25 26 27.25 24.25C27.25 22.75 26.75 21 25.5 20C24.25 18.75 23 18 21.5 17.5V17.5ZM20 0C9 0 0 9 0 20C0 31 9 40 20 40C31 40 40 31 40 20C40 9 31 0 20 0ZM20 37.25C10.5 37.25 2.75 29.5 2.75 20C2.75 10.5 10.5 2.75 20 2.75C29.5 2.75 37.25 10.5 37.25 20C37.25 29.5 29.5 37.25 20 37.25V37.25Z" fill="#66DAFF"/>
</svg>
