<svg width="31" height="30" viewBox="0 0 31 30" fill="none" xmlns="http://www.w3.org/2000/svg">
<g clip-path="url(#clip0_367_27)">
<path d="M6.25 27.5C5.75 27.5 5.3125 27.3125 4.9375 26.9375C4.5625 26.5625 4.375 26.125 4.375 25.625V9.0625C4.375 8.5625 4.5625 8.125 4.9375 7.75C5.3125 7.375 5.75 7.1875 6.25 7.1875H9.6875C9.6875 5.54167 10.2396 4.14062 11.3438 2.98438C12.4479 1.82813 13.8229 1.25 15.4688 1.25C17.1146 1.25 18.5417 1.82813 19.75 2.98438C20.9583 4.14062 21.5625 5.54167 21.5625 7.1875H25C25.5 7.1875 25.9375 7.375 26.3125 7.75C26.6875 8.125 26.875 8.5625 26.875 9.0625V25.625C26.875 26.125 26.6875 26.5625 26.3125 26.9375C25.9375 27.3125 25.5 27.5 25 27.5H6.25ZM6.25 25.625H25V9.0625H6.25V25.625ZM15.625 16.5625C17.2708 16.5625 18.6979 15.9583 19.9062 14.75C21.1146 13.5417 21.7188 12.1146 21.7188 10.4688H19.8438C19.8438 11.6146 19.4271 12.6042 18.5938 13.4375C17.7604 14.2708 16.7708 14.6875 15.625 14.6875C14.4792 14.6875 13.4896 14.2708 12.6562 13.4375C11.8229 12.6042 11.4062 11.6146 11.4062 10.4688H9.53125C9.53125 12.1146 10.1354 13.5417 11.3438 14.75C12.5521 15.9583 13.9792 16.5625 15.625 16.5625ZM11.5625 7.1875H19.6875C19.6875 6.04167 19.2969 5.07812 18.5156 4.29688C17.7344 3.51562 16.7708 3.125 15.625 3.125C14.4792 3.125 13.5156 3.51562 12.7344 4.29688C11.9531 5.07812 11.5625 6.04167 11.5625 7.1875ZM6.25 25.625V9.0625V25.625Z" fill="black"/>
</g>
<defs>
<clipPath id="clip0_367_27">
<rect width="30" height="30" fill="white" transform="translate(0.625)"/>
</clipPath>
</defs>
</svg>