<svg width="31" height="30" viewBox="0 0 31 30" fill="none" xmlns="http://www.w3.org/2000/svg">
<path d="M15.625 14.9688C14.25 14.9688 13.125 14.5312 12.25 13.6562C11.375 12.7812 10.9375 11.6562 10.9375 10.2812C10.9375 8.90625 11.375 7.78125 12.25 6.90625C13.125 6.03125 14.25 5.59375 15.625 5.59375C17 5.59375 18.125 6.03125 19 6.90625C19.875 7.78125 20.3125 8.90625 20.3125 10.2812C20.3125 11.6562 19.875 12.7812 19 13.6562C18.125 14.5312 17 14.9688 15.625 14.9688ZM5.625 25V22.0625C5.625 21.2708 5.82292 20.5937 6.21875 20.0312C6.61458 19.4687 7.125 19.0417 7.75 18.75C9.14583 18.125 10.4844 17.6562 11.7656 17.3437C13.0469 17.0312 14.3333 16.875 15.625 16.875C16.9167 16.875 18.1979 17.0365 19.4688 17.3594C20.7396 17.6823 22.0729 18.1458 23.4688 18.75C24.1146 19.0417 24.6354 19.4687 25.0312 20.0312C25.4271 20.5937 25.625 21.2708 25.625 22.0625V25H5.625ZM7.5 23.125H23.75V22.0625C23.75 21.7292 23.651 21.4115 23.4531 21.1094C23.2552 20.8073 23.0104 20.5833 22.7188 20.4375C21.3854 19.7917 20.1667 19.349 19.0625 19.1094C17.9583 18.8698 16.8125 18.75 15.625 18.75C14.4375 18.75 13.2813 18.8698 12.1563 19.1094C11.0313 19.349 9.8125 19.7917 8.5 20.4375C8.20833 20.5833 7.96875 20.8073 7.78125 21.1094C7.59375 21.4115 7.5 21.7292 7.5 22.0625V23.125ZM15.625 13.0938C16.4375 13.0938 17.1094 12.8281 17.6406 12.2969C18.1719 11.7656 18.4375 11.0938 18.4375 10.2812C18.4375 9.46875 18.1719 8.79688 17.6406 8.26562C17.1094 7.73438 16.4375 7.46875 15.625 7.46875C14.8125 7.46875 14.1406 7.73438 13.6094 8.26562C13.0781 8.79688 12.8125 9.46875 12.8125 10.2812C12.8125 11.0938 13.0781 11.7656 13.6094 12.2969C14.1406 12.8281 14.8125 13.0938 15.625 13.0938Z" fill="black"/>
</svg>