<svg width="26" height="24" viewBox="0 0 26 24" fill="none" xmlns="http://www.w3.org/2000/svg">
<path d="M13.125 23.4531L11.8438 22.2969C9.63542 20.276 7.8125 18.5312 6.375 17.0625C4.9375 15.5938 3.79167 14.2812 2.9375 13.125C2.08333 11.9688 1.48437 10.9219 1.14062 9.98438C0.796875 9.04688 0.625 8.09896 0.625 7.14062C0.625 5.26562 1.25521 3.69792 2.51562 2.4375C3.77604 1.17708 5.33333 0.546875 7.1875 0.546875C8.375 0.546875 9.47396 0.828125 10.4844 1.39062C11.4948 1.95312 12.375 2.76562 13.125 3.82812C14 2.70312 14.9271 1.875 15.9062 1.34375C16.8854 0.8125 17.9375 0.546875 19.0625 0.546875C20.9167 0.546875 22.474 1.17708 23.7344 2.4375C24.9948 3.69792 25.625 5.26562 25.625 7.14062C25.625 8.09896 25.4531 9.04688 25.1094 9.98438C24.7656 10.9219 24.1667 11.9688 23.3125 13.125C22.4583 14.2812 21.3125 15.5938 19.875 17.0625C18.4375 18.5312 16.6146 20.276 14.4062 22.2969L13.125 23.4531Z" fill="#FF0000"/>
</svg>