<svg width="31" height="30" viewBox="0 0 31 30" fill="none" xmlns="http://www.w3.org/2000/svg">
<g clip-path="url(#clip0_367_24)">
<path d="M29.412 26.2187L19.6713 18C18.9306 18.5417 18.0664 18.9635 17.0787 19.2656C16.091 19.5677 15.0417 19.7187 13.9306 19.7187C11.2639 19.7187 9.00463 18.9375 7.15278 17.375C5.30093 15.8125 4.375 13.9271 4.375 11.7187C4.375 9.51042 5.30093 7.625 7.15278 6.0625C9.00463 4.5 11.2515 3.71875 13.8935 3.71875C16.5108 3.71875 18.7392 4.5 20.5787 6.0625C22.4182 7.625 23.338 9.51042 23.338 11.7187C23.338 12.6146 23.1651 13.4792 22.8194 14.3125C22.4738 15.1458 21.9552 15.9271 21.2639 16.6562L31.0417 24.8437L29.412 26.2187ZM13.8935 17.8437C15.8935 17.8437 17.5972 17.2448 19.0046 16.0469C20.412 14.849 21.1157 13.4062 21.1157 11.7187C21.1157 10.0312 20.412 8.58854 19.0046 7.39062C17.5972 6.19271 15.8935 5.59375 13.8935 5.59375C11.8688 5.59375 10.1466 6.19271 8.72685 7.39062C7.3071 8.58854 6.59722 10.0312 6.59722 11.7187C6.59722 13.4062 7.3071 14.849 8.72685 16.0469C10.1466 17.2448 11.8688 17.8437 13.8935 17.8437Z" fill="black"/>
</g>
<defs>
<clipPath id="clip0_367_24">
<rect width="30" height="30" fill="white" transform="translate(0.625)"/>
</clipPath>
</defs>
</svg>