<svg width="41" height="40" viewBox="0 0 41 40" fill="none" xmlns="http://www.w3.org/2000/svg">
<g clip-path="url(#clip0_184_344)">
<path d="M10.6358 17.2459C10.805 17.2459 10.9938 17.2719 11.2022 17.324C11.4105 17.3761 11.6188 17.4477 11.8272 17.5388C12.0355 17.63 12.2438 17.7146 12.4522 17.7927C12.6605 17.8709 12.8493 17.949 13.0186 18.0271L12.7061 18.0662C12.6019 18.0792 12.4912 18.0857 12.374 18.0857C12.1527 18.0857 11.9509 18.0532 11.7686 17.988C11.5863 17.9229 11.417 17.8383 11.2608 17.7341C11.1045 17.63 10.9483 17.5519 10.792 17.4998C10.6358 17.4477 10.4925 17.4086 10.3623 17.3826C10.2321 17.3826 10.1149 17.4086 10.0108 17.4607C9.90659 17.5128 9.80242 17.5714 9.69825 17.6365C9.69825 17.5844 9.65268 17.5584 9.56154 17.5584C9.65268 17.4672 9.82195 17.3956 10.0693 17.3435C10.3167 17.2914 10.5055 17.2589 10.6358 17.2459ZM13.2725 18.1248C13.8063 18.1248 14.2946 18.2159 14.7373 18.3982C14.555 18.4633 14.3727 18.5154 14.1904 18.5545C14.0082 18.5935 13.8193 18.6196 13.624 18.6326C13.3636 18.6326 13.1292 18.6065 12.9209 18.5545C12.986 18.4503 13.0511 18.3852 13.1162 18.3591C13.1813 18.3331 13.2334 18.255 13.2725 18.1248ZM20.9483 -0.000231621C22.7842 -0.000231621 24.5485 0.240654 26.2412 0.722425C27.9339 1.2042 29.5225 1.87477 31.0068 2.73414C32.4912 3.59352 33.8454 4.6417 35.0693 5.87867C36.2933 7.11565 37.335 8.46331 38.1943 9.92164C39.0537 11.38 39.7308 12.9685 40.2256 14.6873C40.7204 16.406 40.9613 18.1769 40.9483 19.9998C40.9483 21.8357 40.7074 23.6 40.2256 25.2927C39.7438 26.9854 39.0733 28.574 38.2139 30.0584C37.3545 31.5427 36.3063 32.8969 35.0693 34.1209C33.8324 35.3448 32.4847 36.3865 31.0264 37.2459C29.568 38.1052 27.9795 38.7823 26.2608 39.2771C24.542 39.7719 22.7712 40.0128 20.9483 39.9998C19.1123 39.9998 17.348 39.7589 15.6553 39.2771C13.9626 38.7953 12.374 38.1248 10.8897 37.2654C9.40529 36.406 8.05112 35.3578 6.82716 34.1209C5.6032 32.8839 4.56154 31.5362 3.70216 30.0779C2.84279 28.6196 2.1657 27.031 1.67091 25.3123C1.17612 23.5935 0.935234 21.8227 0.948255 19.9998C0.948255 18.1638 1.18914 16.3995 1.67091 14.7068C2.15268 13.0141 2.82325 11.4255 3.68263 9.94117C4.542 8.4568 5.59018 7.10263 6.82716 5.87867C8.06414 4.65472 9.4118 3.61305 10.8701 2.75367C12.3285 1.8943 13.917 1.21722 15.6358 0.722425C17.3545 0.227633 19.1253 -0.0132525 20.9483 -0.000231621ZM35.8311 10.8396C35.6488 10.5532 35.4665 10.2797 35.2842 10.0193C35.1019 9.75888 34.9131 9.49196 34.7178 9.21852C34.6917 9.33571 34.6592 9.42034 34.6201 9.47242C34.5811 9.52451 34.555 9.6417 34.542 9.82399C34.542 9.94117 34.5876 10.0519 34.6787 10.156C34.7699 10.2602 34.8871 10.3644 35.0303 10.4685C35.1735 10.5727 35.3167 10.6508 35.46 10.7029C35.6032 10.755 35.7269 10.8005 35.8311 10.8396ZM34.4834 8.92555C34.4834 9.02972 34.4639 9.10133 34.4248 9.14039H34.542C34.5941 9.14039 34.6332 9.1469 34.6592 9.15992L34.4834 8.92555ZM20.9483 37.4998C22.4326 37.4998 23.8845 37.311 25.3037 36.9334C26.723 36.5558 28.0641 36.0219 29.3272 35.3318C30.5902 34.6417 31.7621 33.7953 32.8428 32.7927C33.9235 31.7901 34.8675 30.6703 35.6748 29.4334C35.5055 29.0427 35.3428 28.6456 35.1865 28.242C35.0303 27.8383 34.9522 27.4216 34.9522 26.992C34.9522 26.5232 34.9717 26.1456 35.0108 25.8591C35.0498 25.5727 35.0954 25.3188 35.1475 25.0974C35.1996 24.8761 35.2256 24.6873 35.2256 24.531C35.2256 24.3748 35.2061 24.1729 35.167 23.9255C35.1279 23.6782 35.0173 23.4112 34.835 23.1248C34.6527 22.8383 34.4118 22.4347 34.1123 21.9138C34.1253 21.8227 34.1449 21.699 34.1709 21.5427C34.197 21.3865 34.223 21.2237 34.249 21.0545C34.2751 20.8852 34.2816 20.7289 34.2686 20.5857C34.2555 20.4425 34.223 20.3188 34.1709 20.2146C33.8324 20.1755 33.4808 20.1039 33.1162 19.9998C32.7516 19.8956 32.4261 19.7394 32.1397 19.531L32.2568 19.4334C32.0876 19.4724 31.9183 19.5245 31.749 19.5896C31.5798 19.6547 31.417 19.7263 31.2608 19.8045C31.1045 19.8826 30.9352 19.9347 30.7529 19.9607C30.5707 19.9867 30.3949 20.0128 30.2256 20.0388L29.9131 19.9998L29.9717 19.863C29.7894 19.9151 29.5941 19.9802 29.3858 20.0584C29.1774 20.1365 28.9756 20.1755 28.7803 20.1755C28.6501 20.1755 28.4613 20.13 28.2139 20.0388C27.9665 19.9477 27.7191 19.837 27.4717 19.7068C27.2243 19.5766 27.0029 19.4334 26.8076 19.2771C26.6123 19.1209 26.5147 18.9711 26.5147 18.8279L26.5537 18.7693C26.4886 18.6912 26.404 18.6196 26.2998 18.5545C26.1957 18.4894 26.098 18.4242 26.0068 18.3591C25.9157 18.294 25.8311 18.2224 25.7529 18.1443C25.6748 18.0662 25.6423 17.975 25.6553 17.8709L25.8701 17.6951L25.4209 17.6365L25.2647 17.0505C25.2907 17.1157 25.3493 17.1417 25.4404 17.1287C25.5316 17.1157 25.6032 17.0896 25.6553 17.0505L24.9522 16.6795L25.4404 15.4295C25.2582 14.7524 25.2126 14.2315 25.3037 13.867C25.3949 13.5024 25.5707 13.2029 25.8311 12.9685C26.0915 12.7341 26.3779 12.4998 26.6904 12.2654C27.0029 12.031 27.322 11.712 27.6475 11.3084L27.5889 11.074L28.8779 9.51149L29.1709 9.47242C29.5355 9.47242 29.9457 9.4594 30.4014 9.43336C30.8571 9.40732 31.3193 9.36175 31.7881 9.29664C32.2568 9.23154 32.7191 9.16643 33.1748 9.10133C33.6305 9.03623 34.0472 8.95159 34.4248 8.84742C34.0082 8.35263 33.572 7.88388 33.1162 7.44117C32.6605 6.99847 32.1722 6.57529 31.6514 6.17164C31.5082 6.22373 31.3324 6.29534 31.124 6.38649C30.9157 6.47763 30.7074 6.59482 30.499 6.73805C30.2907 6.88128 30.1279 7.03753 30.0108 7.2068C29.8936 7.37607 29.822 7.55185 29.7959 7.73414L29.9131 8.10524C29.6787 8.48284 29.4183 8.71722 29.1318 8.80836C28.8454 8.89951 28.5524 8.95159 28.2529 8.96461C27.9535 8.97763 27.641 8.97763 27.3154 8.96461C26.9899 8.95159 26.6774 9.01018 26.3779 9.14039L26.0654 8.47633L26.3584 7.34352L26.0264 6.85524L29.4053 5.80055C29.2621 5.43597 29.0277 5.16253 28.7022 4.98024C28.3766 4.79795 28.0186 4.7068 27.6279 4.7068V4.51149L28.7217 4.33571C27.5108 3.73675 26.2542 3.28102 24.9522 2.96852C23.6501 2.65602 22.3154 2.49977 20.9483 2.49977C19.8154 2.49977 18.6957 2.61045 17.5889 2.8318C16.4821 3.05315 15.4144 3.37216 14.3858 3.78883C13.3571 4.2055 12.361 4.72633 11.3975 5.35133C10.4339 5.97633 9.55503 6.67946 8.76075 7.46071C9.0993 7.46071 9.35971 7.54534 9.542 7.71461C9.7243 7.88388 9.89357 8.07268 10.0498 8.28102C10.2061 8.48935 10.3688 8.67815 10.5381 8.84742C10.7074 9.0167 10.9352 9.10784 11.2217 9.12086L11.5342 8.88649L11.4951 8.4568L12.1397 7.53883L11.6318 6.09352C11.697 6.05446 11.7946 5.98935 11.9248 5.89821C12.055 5.80706 12.1657 5.76149 12.2568 5.76149C12.6475 5.76149 12.947 5.78102 13.1553 5.82008C13.3636 5.85914 13.5459 5.93076 13.7022 6.03492C13.8584 6.13909 13.9951 6.28883 14.1123 6.48414C14.2295 6.67946 14.4118 6.92685 14.6592 7.22633L15.3623 6.67946C15.4925 6.73154 15.7009 6.81617 15.9873 6.93336C16.2738 7.05055 16.5667 7.19378 16.8662 7.36305C17.1657 7.53232 17.4196 7.7081 17.6279 7.89039C17.8363 8.07268 17.947 8.24196 17.96 8.39821C17.96 8.59352 17.8884 8.74977 17.7451 8.86696C17.6019 8.98414 17.4131 9.0818 17.1787 9.15992C16.9443 9.23805 16.7035 9.29664 16.4561 9.33571C16.2087 9.37477 15.9613 9.42685 15.7139 9.49196C15.4665 9.55706 15.2777 9.62216 15.1475 9.68727C15.0173 9.75237 14.9391 9.86305 14.9131 10.0193L16.0459 10.3904C15.7855 10.6117 15.5055 10.8136 15.2061 10.9959C14.9066 11.1782 14.5941 11.3474 14.2686 11.5037L14.3467 11.8357L12.5498 12.5388V13.0857L12.4131 13.1443L12.5108 12.4607L12.4326 12.4412C12.3415 12.4412 12.2894 12.4607 12.2764 12.4998C12.2634 12.5388 12.2568 12.5844 12.2568 12.6365C12.2568 12.6886 12.2699 12.7407 12.2959 12.7927C12.322 12.8448 12.3285 12.8839 12.3154 12.9099L12.0615 12.7732L12.1006 12.8513C12.1006 12.8904 12.1201 12.949 12.1592 13.0271C12.1983 13.1052 12.2503 13.1769 12.3154 13.242C12.3805 13.3071 12.4326 13.3722 12.4717 13.4373C12.5108 13.5024 12.5368 13.5349 12.5498 13.5349C12.5498 13.574 12.5238 13.613 12.4717 13.6521C12.4196 13.6912 12.3545 13.7172 12.2764 13.7302C12.1983 13.7433 12.1462 13.7628 12.1201 13.7888C12.0941 13.8149 12.0941 13.8214 12.1201 13.8084C12.3024 13.8084 12.3415 13.8214 12.2373 13.8474C12.1332 13.8735 11.9704 13.9386 11.749 14.0427C11.5277 14.1469 11.3259 14.2966 11.1436 14.492C10.9613 14.6873 10.8571 14.9737 10.8311 15.3513C10.8311 15.5727 10.8376 15.7875 10.8506 15.9959C10.8636 16.2042 10.8571 16.419 10.8311 16.6404C10.6488 16.1456 10.3753 15.768 10.0108 15.5076C9.64617 15.2472 9.20346 15.117 8.68263 15.117L7.84279 15.1951L8.25294 15.4685C8.03159 15.4425 7.80372 15.4164 7.56935 15.3904C7.33497 15.3644 7.09409 15.3578 6.84669 15.3709C6.5993 15.3839 6.37794 15.436 6.18263 15.5271C5.98732 15.6183 5.792 15.755 5.59669 15.9373L5.4795 16.8162C5.4795 17.2328 5.57065 17.5714 5.75294 17.8318C5.93523 18.0922 6.25424 18.2289 6.70997 18.242C7.1006 18.242 7.48471 18.1834 7.86232 18.0662C8.23992 17.949 8.61102 17.8123 8.9756 17.656C8.85841 17.9425 8.7282 18.2159 8.58497 18.4763C8.44174 18.7367 8.33758 19.0232 8.27247 19.3357L8.52638 19.4529C8.83888 19.2446 9.12534 19.212 9.38575 19.3552C9.64617 19.4985 9.90008 19.7068 10.1475 19.9802C10.3949 20.2537 10.6488 20.5336 10.9092 20.8201C11.1696 21.1065 11.4496 21.3149 11.749 21.4451L11.085 21.7966L9.52247 20.9177C9.53549 20.9438 9.54852 21.0024 9.56154 21.0935C9.57456 21.1847 9.56805 21.2042 9.542 21.1521L8.83888 19.9607C8.42221 19.9477 7.9795 19.8826 7.51075 19.7654C7.042 19.6482 6.56674 19.492 6.08497 19.2966C5.6032 19.1013 5.15398 18.8865 4.73732 18.6521C4.32065 18.4177 3.93654 18.1703 3.58497 17.9099L3.44825 19.9998C3.44825 21.5883 3.6631 23.1378 4.09279 24.6482C4.52247 26.1586 5.12794 27.5779 5.90919 28.906C6.69044 30.2341 7.64747 31.4451 8.78029 32.5388C9.9131 33.6326 11.1696 34.5636 12.5498 35.3318C12.4847 35.0584 12.4782 34.7849 12.5303 34.5115C12.5824 34.238 12.6475 33.9646 12.7256 33.6912C12.8037 33.4177 12.8884 33.1443 12.9795 32.8709C13.0707 32.5974 13.1162 32.3175 13.1162 32.031C13.1162 31.6144 13.0511 31.1782 12.9209 30.7224C12.7907 30.2667 12.6345 29.8045 12.4522 29.3357C12.2699 28.867 12.068 28.4047 11.8467 27.949C11.6253 27.4933 11.4496 27.0636 11.3193 26.6599C11.1891 26.2563 11.085 25.8787 11.0068 25.5271C10.9287 25.1755 10.9678 24.8696 11.124 24.6091L10.8311 24.4724C10.9092 24.2901 11.0134 24.1144 11.1436 23.9451C11.2738 23.7758 11.4105 23.6065 11.5537 23.4373C11.697 23.268 11.8076 23.0857 11.8858 22.8904C11.9639 22.6951 12.0095 22.4998 12.0225 22.3045C12.0225 22.1742 11.9964 22.0375 11.9443 21.8943C11.8923 21.7511 11.8467 21.6144 11.8076 21.4841L12.2178 21.5818C12.4391 21.074 12.7386 20.7289 13.1162 20.5466C13.4938 20.3644 13.9691 20.2667 14.542 20.2537C14.6071 20.2537 14.7438 20.2797 14.9522 20.3318C15.1605 20.3839 15.3818 20.4555 15.6162 20.5466C15.8506 20.6378 16.072 20.7094 16.2803 20.7615C16.4886 20.8136 16.6449 20.8657 16.749 20.9177C16.749 21.0089 16.8011 21.0675 16.9053 21.0935C17.0095 21.1196 17.068 21.1651 17.0811 21.2302L17.042 21.3865C17.0811 21.3995 17.1722 21.4451 17.3154 21.5232C17.4587 21.6013 17.6149 21.699 17.7842 21.8162C17.9535 21.9334 18.1032 22.0375 18.2334 22.1287C18.3636 22.2198 18.4548 22.2914 18.5068 22.3435C18.7412 22.3435 19.0602 22.4216 19.4639 22.5779C19.8675 22.7341 20.3102 22.9295 20.792 23.1638C21.2738 23.3982 21.749 23.6782 22.2178 24.0037C22.6865 24.3292 23.1292 24.6547 23.5459 24.9802C23.9626 25.3058 24.2816 25.6313 24.5029 25.9568C24.7243 26.2823 24.8545 26.5688 24.8936 26.8162L24.2295 27.5193C24.2816 28.1834 24.236 28.6912 24.0928 29.0427C23.9496 29.3943 23.7282 29.6873 23.4287 29.9216C23.1292 30.156 22.7842 30.3513 22.3936 30.5076C22.0029 30.6638 21.5798 30.8852 21.124 31.1716C21.124 31.4321 21.0589 31.712 20.9287 32.0115C20.7985 32.311 20.6358 32.5974 20.4404 32.8709C20.2451 33.1443 20.0108 33.3722 19.7373 33.5545C19.4639 33.7367 19.1904 33.8279 18.917 33.8279L18.0967 33.2029C18.1227 33.2289 18.1227 33.2745 18.0967 33.3396C18.0707 33.4047 18.0381 33.4177 17.999 33.3787C18.1292 33.6261 18.1618 33.9125 18.0967 34.238C18.0316 34.5636 17.9209 34.8956 17.7647 35.2341C17.6084 35.5727 17.4326 35.8917 17.2373 36.1912C17.042 36.4907 16.8662 36.7446 16.71 36.9529C17.4131 37.1352 18.1162 37.2719 18.8193 37.363C19.5225 37.4542 20.2321 37.4998 20.9483 37.4998Z" fill="#66DAFF"/>
</g>
<defs>
<clipPath id="clip0_184_344">
<rect width="40" height="40" fill="white" transform="translate(0.94873)"/>
</clipPath>
</defs>
</svg>
