<svg width="40" height="40" viewBox="0 0 40 40" fill="none" xmlns="http://www.w3.org/2000/svg">
<g clip-path="url(#clip0_510_937)">
<path d="M9.68702 17.2459C9.85629 17.2459 10.0451 17.2719 10.2534 17.324C10.4618 17.3761 10.6701 17.4477 10.8784 17.5388C11.0868 17.63 11.2951 17.7146 11.5034 17.7927C11.7118 17.8709 11.9006 17.949 12.0698 18.0271L11.7573 18.0662C11.6532 18.0792 11.5425 18.0857 11.4253 18.0857C11.204 18.0857 11.0021 18.0532 10.8198 17.988C10.6375 17.9229 10.4683 17.8383 10.312 17.7341C10.1558 17.63 9.99952 17.5519 9.84327 17.4998C9.68702 17.4477 9.54379 17.4086 9.41359 17.3826C9.28338 17.3826 9.16619 17.4086 9.06202 17.4607C8.95786 17.5128 8.85369 17.5714 8.74952 17.6365C8.74952 17.5844 8.70395 17.5584 8.61281 17.5584C8.70395 17.4672 8.87322 17.3956 9.12062 17.3435C9.36801 17.2914 9.55682 17.2589 9.68702 17.2459ZM12.3237 18.1248C12.8576 18.1248 13.3459 18.2159 13.7886 18.3982C13.6063 18.4633 13.424 18.5154 13.2417 18.5545C13.0594 18.5935 12.8706 18.6196 12.6753 18.6326C12.4149 18.6326 12.1805 18.6065 11.9722 18.5545C12.0373 18.4503 12.1024 18.3852 12.1675 18.3591C12.2326 18.3331 12.2847 18.255 12.3237 18.1248ZM19.9995 -0.000231621C21.8355 -0.000231621 23.5998 0.240654 25.2925 0.722425C26.9852 1.2042 28.5737 1.87477 30.0581 2.73414C31.5425 3.59352 32.8967 4.6417 34.1206 5.87867C35.3446 7.11565 36.3862 8.46331 37.2456 9.92164C38.105 11.38 38.7821 12.9685 39.2769 14.6873C39.7717 16.406 40.0125 18.1769 39.9995 19.9998C39.9995 21.8357 39.7586 23.6 39.2769 25.2927C38.7951 26.9854 38.1245 28.574 37.2651 30.0584C36.4058 31.5427 35.3576 32.8969 34.1206 34.1209C32.8836 35.3448 31.536 36.3865 30.0776 37.2459C28.6193 38.1052 27.0308 38.7823 25.312 39.2771C23.5933 39.7719 21.8224 40.0128 19.9995 39.9998C18.1636 39.9998 16.3993 39.7589 14.7066 39.2771C13.0138 38.7953 11.4253 38.1248 9.94093 37.2654C8.45656 36.406 7.10239 35.3578 5.87843 34.1209C4.65447 32.8839 3.61281 31.5362 2.75343 30.0779C1.89406 28.6196 1.21697 27.031 0.722181 25.3123C0.227389 23.5935 -0.0134966 21.8227 -0.000475761 19.9998C-0.000475761 18.1638 0.24041 16.3995 0.722181 14.7068C1.20395 13.0141 1.87452 11.4255 2.7339 9.94117C3.59327 8.4568 4.64145 7.10263 5.87843 5.87867C7.11541 4.65472 8.46307 3.61305 9.9214 2.75367C11.3797 1.8943 12.9683 1.21722 14.687 0.722425C16.4058 0.227633 18.1766 -0.0132525 19.9995 -0.000231621ZM34.8823 10.8396C34.7 10.5532 34.5178 10.2797 34.3355 10.0193C34.1532 9.75888 33.9644 9.49196 33.7691 9.21852C33.743 9.33571 33.7105 9.42034 33.6714 9.47242C33.6323 9.52451 33.6063 9.6417 33.5933 9.82399C33.5933 9.94117 33.6388 10.0519 33.73 10.156C33.8211 10.2602 33.9383 10.3644 34.0816 10.4685C34.2248 10.5727 34.368 10.6508 34.5112 10.7029C34.6545 10.755 34.7782 10.8005 34.8823 10.8396ZM33.5347 8.92555C33.5347 9.02972 33.5151 9.10133 33.4761 9.14039H33.5933C33.6454 9.14039 33.6844 9.1469 33.7105 9.15992L33.5347 8.92555ZM19.9995 37.4998C21.4839 37.4998 22.9357 37.311 24.355 36.9334C25.7743 36.5558 27.1154 36.0219 28.3784 35.3318C29.6415 34.6417 30.8133 33.7953 31.8941 32.7927C32.9748 31.7901 33.9188 30.6703 34.7261 29.4334C34.5568 29.0427 34.3941 28.6456 34.2378 28.242C34.0816 27.8383 34.0034 27.4216 34.0034 26.992C34.0034 26.5232 34.023 26.1456 34.062 25.8591C34.1011 25.5727 34.1467 25.3188 34.1987 25.0974C34.2508 24.8761 34.2769 24.6873 34.2769 24.531C34.2769 24.3748 34.2573 24.1729 34.2183 23.9255C34.1792 23.6782 34.0685 23.4112 33.8862 23.1248C33.704 22.8383 33.4631 22.4347 33.1636 21.9138C33.1766 21.8227 33.1961 21.699 33.2222 21.5427C33.2482 21.3865 33.2743 21.2237 33.3003 21.0545C33.3263 20.8852 33.3329 20.7289 33.3198 20.5857C33.3068 20.4425 33.2743 20.3188 33.2222 20.2146C32.8836 20.1755 32.5321 20.1039 32.1675 19.9998C31.8029 19.8956 31.4774 19.7394 31.1909 19.531L31.3081 19.4334C31.1388 19.4724 30.9696 19.5245 30.8003 19.5896C30.631 19.6547 30.4683 19.7263 30.312 19.8045C30.1558 19.8826 29.9865 19.9347 29.8042 19.9607C29.6219 19.9867 29.4461 20.0128 29.2769 20.0388L28.9644 19.9998L29.023 19.863C28.8407 19.9151 28.6454 19.9802 28.437 20.0584C28.2287 20.1365 28.0269 20.1755 27.8316 20.1755C27.7013 20.1755 27.5125 20.13 27.2651 20.0388C27.0178 19.9477 26.7704 19.837 26.523 19.7068C26.2756 19.5766 26.0542 19.4334 25.8589 19.2771C25.6636 19.1209 25.5659 18.9711 25.5659 18.8279L25.605 18.7693C25.5399 18.6912 25.4553 18.6196 25.3511 18.5545C25.2469 18.4894 25.1493 18.4242 25.0581 18.3591C24.967 18.294 24.8823 18.2224 24.8042 18.1443C24.7261 18.0662 24.6935 17.975 24.7066 17.8709L24.9214 17.6951L24.4722 17.6365L24.3159 17.0505C24.342 17.1157 24.4006 17.1417 24.4917 17.1287C24.5829 17.1157 24.6545 17.0896 24.7066 17.0505L24.0034 16.6795L24.4917 15.4295C24.3094 14.7524 24.2638 14.2315 24.355 13.867C24.4461 13.5024 24.6219 13.2029 24.8823 12.9685C25.1428 12.7341 25.4292 12.4998 25.7417 12.2654C26.0542 12.031 26.3732 11.712 26.6987 11.3084L26.6401 11.074L27.9292 9.51149L28.2222 9.47242C28.5868 9.47242 28.9969 9.4594 29.4526 9.43336C29.9084 9.40732 30.3706 9.36175 30.8394 9.29664C31.3081 9.23154 31.7704 9.16643 32.2261 9.10133C32.6818 9.03623 33.0985 8.95159 33.4761 8.84742C33.0594 8.35263 32.6232 7.88388 32.1675 7.44117C31.7118 6.99847 31.2235 6.57529 30.7026 6.17164C30.5594 6.22373 30.3836 6.29534 30.1753 6.38649C29.967 6.47763 29.7586 6.59482 29.5503 6.73805C29.342 6.88128 29.1792 7.03753 29.062 7.2068C28.9448 7.37607 28.8732 7.55185 28.8472 7.73414L28.9644 8.10524C28.73 8.48284 28.4696 8.71722 28.1831 8.80836C27.8967 8.89951 27.6037 8.95159 27.3042 8.96461C27.0047 8.97763 26.6922 8.97763 26.3667 8.96461C26.0412 8.95159 25.7287 9.01018 25.4292 9.14039L25.1167 8.47633L25.4097 7.34352L25.0776 6.85524L28.4566 5.80055C28.3133 5.43597 28.079 5.16253 27.7534 4.98024C27.4279 4.79795 27.0698 4.7068 26.6792 4.7068V4.51149L27.773 4.33571C26.562 3.73675 25.3055 3.28102 24.0034 2.96852C22.7013 2.65602 21.3667 2.49977 19.9995 2.49977C18.8667 2.49977 17.7469 2.61045 16.6401 2.8318C15.5334 3.05315 14.4657 3.37216 13.437 3.78883C12.4084 4.2055 11.4123 4.72633 10.4487 5.35133C9.4852 5.97633 8.60629 6.67946 7.81202 7.46071C8.15057 7.46071 8.41098 7.54534 8.59327 7.71461C8.77557 7.88388 8.94484 8.07268 9.10109 8.28102C9.25734 8.48935 9.4201 8.67815 9.58937 8.84742C9.75864 9.0167 9.9865 9.10784 10.273 9.12086L10.5855 8.88649L10.5464 8.4568L11.1909 7.53883L10.6831 6.09352C10.7482 6.05446 10.8459 5.98935 10.9761 5.89821C11.1063 5.80706 11.217 5.76149 11.3081 5.76149C11.6987 5.76149 11.9982 5.78102 12.2066 5.82008C12.4149 5.85914 12.5972 5.93076 12.7534 6.03492C12.9097 6.13909 13.0464 6.28883 13.1636 6.48414C13.2808 6.67946 13.4631 6.92685 13.7105 7.22633L14.4136 6.67946C14.5438 6.73154 14.7521 6.81617 15.0386 6.93336C15.325 7.05055 15.618 7.19378 15.9175 7.36305C16.217 7.53232 16.4709 7.7081 16.6792 7.89039C16.8875 8.07268 16.9982 8.24196 17.0112 8.39821C17.0112 8.59352 16.9396 8.74977 16.7964 8.86696C16.6532 8.98414 16.4644 9.0818 16.23 9.15992C15.9956 9.23805 15.7547 9.29664 15.5073 9.33571C15.2599 9.37477 15.0125 9.42685 14.7651 9.49196C14.5178 9.55706 14.329 9.62216 14.1987 9.68727C14.0685 9.75237 13.9904 9.86305 13.9644 10.0193L15.0972 10.3904C14.8368 10.6117 14.5568 10.8136 14.2573 10.9959C13.9579 11.1782 13.6454 11.3474 13.3198 11.5037L13.398 11.8357L11.6011 12.5388V13.0857L11.4644 13.1443L11.562 12.4607L11.4839 12.4412C11.3928 12.4412 11.3407 12.4607 11.3276 12.4998C11.3146 12.5388 11.3081 12.5844 11.3081 12.6365C11.3081 12.6886 11.3211 12.7407 11.3472 12.7927C11.3732 12.8448 11.3797 12.8839 11.3667 12.9099L11.1128 12.7732L11.1519 12.8513C11.1519 12.8904 11.1714 12.949 11.2105 13.0271C11.2495 13.1052 11.3016 13.1769 11.3667 13.242C11.4318 13.3071 11.4839 13.3722 11.523 13.4373C11.562 13.5024 11.5881 13.5349 11.6011 13.5349C11.6011 13.574 11.575 13.613 11.523 13.6521C11.4709 13.6912 11.4058 13.7172 11.3276 13.7302C11.2495 13.7433 11.1974 13.7628 11.1714 13.7888C11.1454 13.8149 11.1454 13.8214 11.1714 13.8084C11.3537 13.8084 11.3928 13.8214 11.2886 13.8474C11.1844 13.8735 11.0217 13.9386 10.8003 14.0427C10.579 14.1469 10.3771 14.2966 10.1948 14.492C10.0125 14.6873 9.90838 14.9737 9.88234 15.3513C9.88234 15.5727 9.88885 15.7875 9.90187 15.9959C9.91489 16.2042 9.90838 16.419 9.88234 16.6404C9.70004 16.1456 9.42661 15.768 9.06202 15.5076C8.69744 15.2472 8.25473 15.117 7.7339 15.117L6.89406 15.1951L7.30421 15.4685C7.08286 15.4425 6.85499 15.4164 6.62062 15.3904C6.38624 15.3644 6.14536 15.3578 5.89796 15.3709C5.65057 15.3839 5.42921 15.436 5.2339 15.5271C5.03859 15.6183 4.84327 15.755 4.64796 15.9373L4.53077 16.8162C4.53077 17.2328 4.62192 17.5714 4.80421 17.8318C4.9865 18.0922 5.30551 18.2289 5.76124 18.242C6.15187 18.242 6.53598 18.1834 6.91359 18.0662C7.29119 17.949 7.66228 17.8123 8.02687 17.656C7.90968 17.9425 7.77947 18.2159 7.63624 18.4763C7.49301 18.7367 7.38885 19.0232 7.32374 19.3357L7.57765 19.4529C7.89015 19.2446 8.17661 19.212 8.43702 19.3552C8.69744 19.4985 8.95135 19.7068 9.19874 19.9802C9.44614 20.2537 9.70004 20.5336 9.96046 20.8201C10.2209 21.1065 10.5008 21.3149 10.8003 21.4451L10.1362 21.7966L8.57374 20.9177C8.58676 20.9438 8.59978 21.0024 8.61281 21.0935C8.62583 21.1847 8.61932 21.2042 8.59327 21.1521L7.89015 19.9607C7.47348 19.9477 7.03077 19.8826 6.56202 19.7654C6.09327 19.6482 5.61801 19.492 5.13624 19.2966C4.65447 19.1013 4.20525 18.8865 3.78859 18.6521C3.37192 18.4177 2.98781 18.1703 2.63624 17.9099L2.49952 19.9998C2.49952 21.5883 2.71437 23.1378 3.14406 24.6482C3.57374 26.1586 4.17921 27.5779 4.96046 28.906C5.74171 30.2341 6.69874 31.4451 7.83156 32.5388C8.96437 33.6326 10.2209 34.5636 11.6011 35.3318C11.536 35.0584 11.5295 34.7849 11.5816 34.5115C11.6336 34.238 11.6987 33.9646 11.7769 33.6912C11.855 33.4177 11.9396 33.1443 12.0308 32.8709C12.1219 32.5974 12.1675 32.3175 12.1675 32.031C12.1675 31.6144 12.1024 31.1782 11.9722 30.7224C11.842 30.2667 11.6857 29.8045 11.5034 29.3357C11.3211 28.867 11.1193 28.4047 10.898 27.949C10.6766 27.4933 10.5008 27.0636 10.3706 26.6599C10.2404 26.2563 10.1362 25.8787 10.0581 25.5271C9.97999 25.1755 10.0191 24.8696 10.1753 24.6091L9.88234 24.4724C9.96046 24.2901 10.0646 24.1144 10.1948 23.9451C10.325 23.7758 10.4618 23.6065 10.605 23.4373C10.7482 23.268 10.8589 23.0857 10.937 22.8904C11.0151 22.6951 11.0607 22.4998 11.0737 22.3045C11.0737 22.1742 11.0477 22.0375 10.9956 21.8943C10.9435 21.7511 10.898 21.6144 10.8589 21.4841L11.2691 21.5818C11.4904 21.074 11.7899 20.7289 12.1675 20.5466C12.5451 20.3644 13.0204 20.2667 13.5933 20.2537C13.6584 20.2537 13.7951 20.2797 14.0034 20.3318C14.2118 20.3839 14.4331 20.4555 14.6675 20.5466C14.9019 20.6378 15.1232 20.7094 15.3316 20.7615C15.5399 20.8136 15.6961 20.8657 15.8003 20.9177C15.8003 21.0089 15.8524 21.0675 15.9566 21.0935C16.0607 21.1196 16.1193 21.1651 16.1323 21.2302L16.0933 21.3865C16.1323 21.3995 16.2235 21.4451 16.3667 21.5232C16.5099 21.6013 16.6662 21.699 16.8355 21.8162C17.0047 21.9334 17.1545 22.0375 17.2847 22.1287C17.4149 22.2198 17.506 22.2914 17.5581 22.3435C17.7925 22.3435 18.1115 22.4216 18.5151 22.5779C18.9188 22.7341 19.3615 22.9295 19.8433 23.1638C20.325 23.3982 20.8003 23.6782 21.2691 24.0037C21.7378 24.3292 22.1805 24.6547 22.5972 24.9802C23.0138 25.3058 23.3329 25.6313 23.5542 25.9568C23.7756 26.2823 23.9058 26.5688 23.9448 26.8162L23.2808 27.5193C23.3329 28.1834 23.2873 28.6912 23.1441 29.0427C23.0008 29.3943 22.7795 29.6873 22.48 29.9216C22.1805 30.156 21.8355 30.3513 21.4448 30.5076C21.0542 30.6638 20.631 30.8852 20.1753 31.1716C20.1753 31.4321 20.1102 31.712 19.98 32.0115C19.8498 32.311 19.687 32.5974 19.4917 32.8709C19.2964 33.1443 19.062 33.3722 18.7886 33.5545C18.5151 33.7367 18.2417 33.8279 17.9683 33.8279L17.148 33.2029C17.174 33.2289 17.174 33.2745 17.148 33.3396C17.1219 33.4047 17.0894 33.4177 17.0503 33.3787C17.1805 33.6261 17.2131 33.9125 17.148 34.238C17.0829 34.5636 16.9722 34.8956 16.8159 35.2341C16.6597 35.5727 16.4839 35.8917 16.2886 36.1912C16.0933 36.4907 15.9175 36.7446 15.7612 36.9529C16.4644 37.1352 17.1675 37.2719 17.8706 37.363C18.5737 37.4542 19.2834 37.4998 19.9995 37.4998Z" fill="black"/>
</g>
<defs>
<clipPath id="clip0_510_937">
<rect width="40" height="40" fill="white"/>
</clipPath>
</defs>
</svg>
